<?xml version="1.0" encoding="utf-8"?>
<!-- Generator: Adobe Illustrator 17.1.0, SVG Export Plug-In . SVG Version: 6.00 Build 0)  -->
<!DOCTYPE svg PUBLIC "-//W3C//DTD SVG 1.1//EN" "http://www.w3.org/Graphics/SVG/1.1/DTD/svg11.dtd">
<svg version="1.1" xmlns="http://www.w3.org/2000/svg" xmlns:xlink="http://www.w3.org/1999/xlink" x="0px" y="0px"
	 viewBox="0 0 190 65" enable-background="new 0 0 190 65" xml:space="preserve">
<g id="Layer_1">
</g>
<g id="Layer_2">
</g>
<g id="Layer_3">
</g>
<g id="Layer_4">
	<g>
		<path fill="#843C14" d="M107.6,28.7c0.4-0.9-0.4-0.2-0.9,0.1c-0.5,0.4-2.1,1.4-3.9,1.8s-5.5,1-5.2-2c1.1-0.2,3.2-0.8,5.5-2.3
			s3.4-3,3.2-4.8c-0.2-1.2-3.6-1.4-5.3-0.6c-1.7,0.7-3.6,2.5-5,5.8c-1,0.8-5.7,4.5-9.2,4.5c0-0.8-0.2-1.5,0.5-2.5
			c0.6-1,2.1-2.3,2.1-4.2c0-1.8-0.4-2-1.9-1.8c-1.5,0.2-4.5,3.1-6.8,5.2c-2.3,2.1-3.6,1.4-3.2,0.3c0.4-1.2,1.4-3,1.1-3.7
			c-0.2-0.8-1.7-0.6-2,0.2c-0.5-0.1-2.6-1.2-5.2,0.1c-2.6,1.3-3.8,2.3-5.3,4.2c-1.6,1-5.9,4.2-8.5,4.8c-2.6,0.5-5.1,0.3-5.2-1.6
			c-0.2-1.9,0.8-5.2,3.9-6.8s7.6-4.1,13.1-8.9s11.9-9.7,12.4-14c0.6-4.2-5.1-2.8-9.4,0.8S55.3,20.6,50.9,26.6
			c-1.1,0.6-3.7,2.4-7.4,3.2c-3.8,0.8-8,1.8-8-0.7c0-1.6,1.3-3.2,4.4-5.7c3.1-2.6,10.6-8.5,12.9-9.8c0.6-0.1,1.7-0.6,2.2-1.4
			c0.4-0.8-0.3-2.5-3.2-0.4C49,13.8,42.1,19,35,25.3c-1.5,0-5.3-0.7-7.9,1.4s-1.3,3,0.4,3.4s1.9,0.9,1.8,1.5s-0.6,1.4-3.2,3.8
			C23.5,37.8,5.8,55.5,2.3,59.2s-2.8,6.3,1.1,3.9c4-2.4,8.5-5.8,12.9-10.4s9.5-10.3,13.3-16.3c1.1-2,3-4.6,4.2-4.9
			c1.2-0.2,3.8,0.2,5.6,0.1s8-1,11.4-4c0,0-1,4.9,0,6.4s5.8,1.3,8.4,0c2.6-1.3,7-4.4,7-4.4s-1.8,2.9-0.8,4.6
			c0.9,1.7,4.3,0.3,6.6-1.1c2.3-1.3,3.4-2.2,4.2-3c0.4,0,2.1,0.5,4.1-0.9c2.1-1.5,3.9-3.4,3.9-3.4s1.2-1.3,2.1-0.4
			c0.9,0.9,0.3,1.4-0.5,2.4s-2.3,2.8-2.7,3.7c-0.4,1,0.2,1.4,1.6,1.3C86,33,92,31.4,95.9,27.9c-0.1,0.9,0.1,3.1,1.3,3.8
			c1.3,0.7,3.9,0.6,5.8-0.1C104.9,30.9,107.1,29.6,107.6,28.7z M97.9,25.6c0.4-1.1,2.6-2.8,3.4-3.3c0.8-0.5,2.3-0.6,2.5,0.1
			c0.2,0.7,0.2,1.9-1.8,3.1c-2,1.2-3.4,1.6-3.4,1.6C97.6,27.5,97.6,26.7,97.9,25.6z M58.9,20.1C60.3,18.4,69.8,7.9,72,6
			c2.3-1.9,6.3-4.6,7.1-2.9c0.8,1.7-1.6,4.5-7.6,10.5C65.6,19.5,58,23.5,58,23.5v0.2C57,22.5,57.5,21.8,58.9,20.1z M18.3,49.7
			c-4.4,5.1-10.6,9.8-10.6,9.8c-1.3,1-3.2,1.8-3.7,1.3c-0.4-0.4-0.2-1.1,2.5-3.9C9.2,54.1,19.2,44,20,43.1c0.9-0.9,5.6-5.7,6-3.9
			C26.4,40.9,22.7,44.5,18.3,49.7z M30.4,30.6c-0.4-0.2-1.5-0.9-1.2-1.7c0.3-0.8,0.7-1,1.4-1c0.7,0,1.5,0.1,2,0.2
			C32.5,28,30.8,29.9,30.4,30.6z M75.8,28c-0.2,1.2-1.2,2.5-3.1,3.6C70.8,32.7,69,33,69,33c-0.5,0.1-1.4,0.4-2-0.4
			c-0.6-0.8,0.6-2.2,1.6-3.4c1-1.2,2.8-3,4.3-3.4C74.4,25.4,76,26.8,75.8,28z"/>
		<path fill="#843C14" d="M186.9,9.2c-1.6,0.5-8,1.5-15.4,2.2c-7.4,0.8-22.5,2.3-29.3,2.2c-3.3,0-7.5-0.3-12.2-0.7
			c2.7-1.9,6.4-4,8.2-5c2.1-1.2,4-3,3.1-3.9c-0.9-0.9-2.7-0.3-3.7,0c-1,0.3-3.3,2.6-6.1,4.6c-1.4,1-3.2,2.4-4.9,3.9
			c-3.7-0.4-7.7-0.9-11.6-1.5c-10.1-1.5-22.1-0.1-25,0.5c-2.9,0.6-4.5,1.9-4,2.8c0.5,0.9,3.4,2.3,4.6,2.5c1.2,0.2,0.8-0.9,0.8-0.9
			c-4.7-2.3-2.9-3.2,9.9-4.3c8.5-0.7,14.8,1,23.9,2.2c-1.2,1.1-2.3,2.2-3.2,3.3c-2.6,3.2-6,7.1-7.8,8.8c-1.8,1.7-6,5.6-7.5,6.7
			c-3.9,3-2.3,3.9-1.1,3.7c1.2-0.2,5.2-4.4,7.9-7c2.8-2.5,5.4-5.7,7.6-7.9c2-2,4.8-5.2,7.4-7.4c4,0.4,8.5,0.7,13.8,0.7
			c14.5-0.4,42.4-3.5,46.1-4.5C192.1,9.3,188.6,8.7,186.9,9.2z"/>
	</g>
</g>
</svg>
